<mxfile host="app.diagrams.net" modified="2021-06-19T12:52:07.629Z" agent="5.0 (Macintosh; Intel Mac OS X 10_15_7) AppleWebKit/537.36 (KHTML, like Gecko) Chrome/91.0.4472.106 Safari/537.36" etag="Z4-Uuxebe3_20r-Thc53" version="14.6.5" type="github">
  <diagram id="Z1bEtrx5cBO62hRyLIBc" name="Page-1">
    <mxGraphModel dx="1261" dy="732" grid="1" gridSize="10" guides="1" tooltips="1" connect="1" arrows="1" fold="1" page="1" pageScale="1" pageWidth="827" pageHeight="1169" math="0" shadow="0">
      <root>
        <mxCell id="0" />
        <mxCell id="1" parent="0" />
        <mxCell id="J1vrmTJohADwKR--VA7O-2" value="" style="rounded=0;whiteSpace=wrap;html=1;strokeColor=#000000;" vertex="1" parent="1">
          <mxGeometry x="20" y="140" width="800" height="380" as="geometry" />
        </mxCell>
        <mxCell id="J1vrmTJohADwKR--VA7O-8" value="" style="rounded=0;whiteSpace=wrap;html=1;" vertex="1" parent="1">
          <mxGeometry x="430" y="215" width="380" height="190" as="geometry" />
        </mxCell>
        <mxCell id="J1vrmTJohADwKR--VA7O-1" value="&lt;font style=&quot;font-size: 30px&quot;&gt;Kafka Cluster&lt;/font&gt;" style="rounded=0;whiteSpace=wrap;html=1;" vertex="1" parent="1">
          <mxGeometry x="320" y="30" width="220" height="80" as="geometry" />
        </mxCell>
        <mxCell id="J1vrmTJohADwKR--VA7O-3" value="" style="rounded=0;whiteSpace=wrap;html=1;" vertex="1" parent="1">
          <mxGeometry x="40" y="215" width="380" height="190" as="geometry" />
        </mxCell>
        <mxCell id="J1vrmTJohADwKR--VA7O-4" value="" style="rounded=0;whiteSpace=wrap;html=1;strokeColor=#000000;" vertex="1" parent="1">
          <mxGeometry x="530" y="280" width="160" height="60" as="geometry" />
        </mxCell>
        <mxCell id="J1vrmTJohADwKR--VA7O-5" value="" style="rounded=0;whiteSpace=wrap;html=1;" vertex="1" parent="1">
          <mxGeometry x="240" y="280" width="160" height="60" as="geometry" />
        </mxCell>
        <mxCell id="J1vrmTJohADwKR--VA7O-6" value="" style="rounded=0;whiteSpace=wrap;html=1;" vertex="1" parent="1">
          <mxGeometry x="60" y="280" width="160" height="60" as="geometry" />
        </mxCell>
        <mxCell id="J1vrmTJohADwKR--VA7O-10" value="" style="rounded=0;whiteSpace=wrap;html=1;" vertex="1" parent="1">
          <mxGeometry x="310" y="545" width="220" height="80" as="geometry" />
        </mxCell>
      </root>
    </mxGraphModel>
  </diagram>
</mxfile>
